:FULLY-SPECIFIED
:FORCE-ALL-JOINTS-BE-3DOF
:DEGREES
1
root -2.23145 17.4372 -34.1448 1.41836 -10.159 -1.70889
lfemur -23.8791 4.76687 -17.5803
ltibia 56.7112 0 0
lfoot 0.455382 -4.86695 -0.0308969
ltoes -12.6005 0 0
rfemur -7.87836 10.8357 26.649
rtibia 30.9944 0 0
rfoot -1.70746 -0.760225 0.376404
rtoes 4.49076 0 0
lowerback 3.66826 0.360886 -1.28417
upperback -0.55592 0.516359 4.52098
thorax -2.60408 0.316222 5.37325
lowerneck -6.21064 -0.700705 -13.0454
upperneck 18.4887 -0.268671 5.38881
head 6.67535 -0.57648 3.83282
lclavicle 2.71763e-14 -1.10524e-14 -1.64901e-30
lhumerus -37.6365 13.717 83.0994
lradius 31.1121 0 0
lwrist -9.1395 0 0
lhand -13.981 26.9267 -0.00266679
lfingers 7.12502 0 0
lthumb 12.1471 56.5476 -0.00389952
rclavicle 2.71763e-14 -1.10524e-14 -1.64901e-30
rhumerus -34.7642 -11.4992 -74.6971
rradius 33.3314 0 0
rwrist 5.64622 0 0
rhand -15.6124 12.8729 0.0209086
rfingers 7.12502 0 0
rthumb 10.5739 -16.8371 0.0208293
2
root -2.23115 17.4412 -33.9049 1.12462 -9.23248 -1.54064
lfemur -24.4974 4.14306 -17.863
ltibia 56.6733 0 0
lfoot -0.954704 -3.50848 -0.00553363
ltoes -12.0697 0 0
rfemur -7.51909 10.0116 26.5199
rtibia 32.0567 0 0
rfoot -1.38969 -1.24906 0.460558
rtoes 5.15332 0 0
lowerback 6.00995 1.29405 -1.5386
upperback -1.1321 1.7903 4.24029
thorax -4.72788 0.999291 5.14773
lowerneck -8.58579 -2.06296 -11.7142
upperneck 20.2168 -1.92085 4.89223
head 7.81476 -1.35057 3.38877
lclavicle -1.92822e-15 -4.26194e-14 7.11703e-31
lhumerus -37.2025 10.5145 84.6938
lradius 30.4416 0 0
lwrist -9.51109 0 0
lhand -13.8448 27.9692 -0.0248936
lfingers 7.12502 0 0
lthumb 12.2779 57.574 -0.0271603
rclavicle -1.92822e-15 -4.26194e-14 7.11703e-31
rhumerus -35.7522 -13.5932 -73.8619
rradius 34.0944 0 0
rwrist 5.07728 0 0
rhand -15.2418 14.0415 0.0309087
rfingers 7.12502 0 0
rthumb 10.9312 -15.6461 0.0311247
3
root -2.23787 17.449 -33.6694 0.875146 -9.18804 -1.38607
lfemur -24.9244 4.163 -18.0578
ltibia 56.4148 0 0
lfoot -0.834522 -3.58605 -0.00708327
ltoes -5.4116 0 0
rfemur -7.2271 9.90726 26.3197
rtibia 32.9971 0 0
rfoot -1.0574 -1.31836 0.557194
rtoes 6.99644 0 0
lowerback 7.04641 -0.115674 -3.96529
upperback -2.13631 -0.220144 6.17134
thorax -6.07064 0.19625 9.09666
lowerneck -6.36817 -0.345049 -14.2334
upperneck 20.0513 0.667844 3.90445
head 7.14989 -0.386478 3.63281
lclavicle 5.88154e-15 -3.435e-14 -3.14081e-30
lhumerus -41.0715 16.5866 84.3199
lradius 30.6415 0 0
lwrist -11.1825 0 0
lhand -12.5254 32.5687 0.180143
lfingers 7.12502 0 0
lthumb 13.5483 62.0684 0.164023
rclavicle 5.88154e-15 -3.435e-14 -3.14081e-30
rhumerus -35.9967 -5.63156 -74.1114
rradius 34.648 0 0
rwrist 3.79477 0 0
rhand -15.126 13.5385 0.0268151
rfingers 7.12502 0 0
rthumb 11.0428 -16.1423 0.0273427
4
root -2.24878 17.457 -33.4328 0.820342 -9.58042 -1.41076
lfemur -25.4929 4.69487 -18.0733
ltibia 56.1273 0 0
lfoot -1.54261 -2.91746 0.0003529
ltoes -2.22977 0 0
rfemur -7.18032 10.0486 26.3381
rtibia 34.0323 0 0
rfoot -0.934986 -1.29967 0.626839
rtoes 7.71474 0 0
lowerback 6.72057 1.04526 -2.5106
upperback -1.47539 1.41291 4.89414
thorax -5.48224 0.880794 6.49893
lowerneck -8.08696 -1.53464 -12.6266
upperneck 20.1892 -1.05139 4.55578
head 7.64682 -1.03233 3.4853
lclavicle 1.24228e-14 3.02948e-14 -3.95029e-30
lhumerus -39.0039 12.4407 84.8973
lradius 29.8062 0 0
lwrist -10.7157 0 0
lhand -14.0198 29.0898 0.0637636
lfingers 7.12502 0 0
lthumb 12.1087 58.6951 0.0561933
rclavicle 1.24228e-14 3.02948e-14 -3.95029e-30
rhumerus -35.4932 -9.67398 -74.7024
rradius 35.2167 0 0
rwrist 4.05157 0 0
rhand -15.6204 12.8279 0.0184434
rfingers 7.12502 0 0
rthumb 10.566 -16.8791 0.018993
5
root -2.25413 17.4509 -33.2011 0.69902 -9.54289 -1.56501
lfemur -26.0784 4.69255 -17.9489
ltibia 55.7759 0 0
lfoot -2.44081 -1.91302 0.0071296
ltoes -0.758608 0 0
rfemur -7.1394 9.98616 26.5312
rtibia 35.1748 0 0
rfoot -1.06411 -1.79744 0.634356
rtoes 5.34011 0 0
lowerback 6.58018 1.07038 -2.04791
upperback -1.27332 1.47315 4.71271
thorax -5.18716 0.878784 6.00688
lowerneck -8.00421 -1.52781 -12.4589
upperneck 19.8651 -1.10968 4.702
head 7.53231 -1.0228 3.49032
lclavicle -7.827e-17 2.3218e-14 -1.42224e-31
lhumerus -38.9224 12.0633 84.8486
lradius 29.6393 0 0
lwrist -10.7754 0 0
lhand -14.2424 28.2642 0.000585466
lfingers 7.12502 0 0
lthumb 11.8945 57.8905 -0.00275627
rclavicle -7.827e-17 2.3218e-14 -1.42224e-31
rhumerus -34.8961 -9.53236 -75.3507
rradius 35.5232 0 0
rwrist 3.85066 0 0
rhand -16.3522 12.1936 0.0132634
rfingers 7.12502 0 0
rthumb 9.86019 -17.5503 0.0136017
6
root -2.24804 17.4326 -32.9762 0.303307 -7.71475 -1.37144
lfemur -26.675 2.87136 -18.213
ltibia 55.3086 0 0
lfoot -3.0597 -1.00444 0.00578834
ltoes 0.669201 0 0
rfemur -6.82427 8.88945 26.3932
rtibia 36.2715 0 0
rfoot -2.04377 -3.20506 0.663636
rtoes 4.68289 0 0
lowerback 6.62029 0.682016 -1.01758
upperback -0.776442 0.996492 3.94915
thorax -4.59495 0.575165 4.62098
lowerneck -8.85846 -1.93411 -11.9906
upperneck 19.7788 -1.69319 5.05727
head 7.70798 -1.22904 3.49118
lclavicle -1.94635e-14 3.81667e-15 1.76912e-31
lhumerus -37.8193 10.9361 84.6346
lradius 29.1345 0 0
lwrist -10.9067 0 0
lhand -14.5293 27.913 0.00288827
lfingers 7.12502 0 0
lthumb 11.6177 57.5531 -0.00091181
rclavicle -1.94635e-14 3.81667e-15 1.76912e-31
rhumerus -33.7716 -10.4865 -76.3895
rradius 35.7565 0 0
rwrist 3.73581 0 0
rhand -17.2715 11.4475 0.00414063
rfingers 7.12502 0 0
rthumb 8.97334 -18.3403 0.00420344
7
root -2.25195 17.398 -32.771 -0.115068 -4.09149 -1.31679
lfemur -27.4862 -0.360483 -18.2819
ltibia 54.7384 0 0
lfoot -3.52891 -0.460116 0.00319652
ltoes 1.18231 0 0
rfemur -6.41591 6.99742 26.5925
rtibia 37.2986 0 0
rfoot -3.70801 -5.57575 0.782933
rtoes 6.31513 0 0
lowerback 7.0865 -1.29069 -1.10778
upperback -0.984397 -1.6248 4.34304
thorax -4.78166 -0.713181 5.44719
lowerneck -7.989 -1.13572 -13.0712
upperneck 19.4173 -0.542067 5.0008
head 7.34476 -0.75156 3.70786
lclavicle -1.82882e-14 -1.67774e-14 1.62941e-31
lhumerus -38.9624 13.4272 84.1685
lradius 29.1216 0 0
lwrist -10.9249 0 0
lhand -14.6965 27.8217 0.0369343
lfingers 7.12502 0 0
lthumb 11.4562 57.4648 0.0306384
rclavicle -1.82882e-14 -1.67774e-14 1.62941e-31
rhumerus -33.1395 -7.02833 -77.3979
rradius 35.9735 0 0
rwrist 3.10559 0 0
rhand -16.0515 11.5974 0.00853389
rfingers 7.12502 0 0
rthumb 10.1502 -18.1332 0.0089643
8
root -2.25497 17.3866 -32.5388 -0.208141 -4.15204 -1.57083
lfemur -27.7697 -0.498831 -18.0979
ltibia 53.8681 0 0
lfoot -4.54785 0.412996 0.00596503
ltoes 1.12802 0 0
rfemur -6.29438 6.98541 26.9274
rtibia 38.0743 0 0
rfoot -5.12885 -6.12672 0.726621
rtoes 6.64092 0 0
lowerback 6.44708 -0.548721 0.700368
upperback -0.221131 -0.560237 3.11871
thorax -3.82476 -0.262874 2.88913
lowerneck -8.94691 -2.03281 -11.4797
upperneck 19.2883 -1.98845 5.55474
head 7.58051 -1.28111 3.54687
lclavicle 8.09797e-15 -2.29795e-14 1.02754e-30
lhumerus -37.1618 9.91514 84.0569
lradius 28.4637 0 0
lwrist -10.4053 0 0
lhand -14.328 28.1483 0.0107959
lfingers 7.12502 0 0
lthumb 11.812 57.7814 0.00757035
rclavicle 8.09797e-15 -2.29795e-14 1.02754e-30
rhumerus -32.2759 -10.1991 -78.438
rradius 36.3274 0 0
rwrist 3.41676 0 0
rhand -15.8292 11.006 0.00589339
rfingers 7.12502 0 0
rthumb 10.3646 -18.7123 0.00669424
9
root -2.25982 17.3778 -32.3045 -0.327919 -4.47573 -1.73005
lfemur -27.9068 -0.463269 -17.9653
ltibia 52.7455 0 0
lfoot -5.16913 1.26106 0.0065772
ltoes 1.45803 0 0
rfemur -6.06193 6.97198 27.124
rtibia 38.5736 0 0
rfoot -6.00455 -6.44899 0.621601
rtoes 5.8808 0 0
lowerback 6.43791 -0.720204 1.08122
upperback -0.363553 -0.767426 3.01904
thorax -3.96565 -0.369287 2.55761
lowerneck -7.9164 -1.64956 -11.5224
upperneck 18.8666 -1.59615 5.648
head 7.2231 -1.08875 3.60582
lclavicle -9.18511e-15 1.35969e-14 -6.85106e-31
lhumerus -37.8912 10.4222 83.5242
lradius 28.2508 0 0
lwrist -10.2236 0 0
lhand -13.7744 29.4693 0.00175249
lfingers 7.12502 0 0
lthumb 12.3461 59.0757 -0.000224787
rclavicle -9.18511e-15 1.35969e-14 -6.85106e-31
rhumerus -32.3293 -8.79205 -79.3127
rradius 36.7672 0 0
rwrist 3.28 0 0
rhand -15.6968 11.3257 0.0116304
rfingers 7.12502 0 0
rthumb 10.4923 -18.3854 0.0123555
10
root -2.26214 17.3742 -32.0579 -0.427293 -4.95198 -1.85765
lfemur -27.8956 -0.35856 -17.8799
ltibia 51.3719 0 0
lfoot -6.0499 2.21322 0.00489757
ltoes -0.311395 0 0
rfemur -5.74457 6.98911 27.2299
rtibia 38.8336 0 0
rfoot -6.70795 -6.70139 0.521345
rtoes 5.2503 0 0
lowerback 5.75166 -0.525719 1.47626
upperback 0.231655 -0.517068 2.89844
thorax -2.99783 -0.260439 2.19455
lowerneck -8.44598 -1.71092 -11.3151
upperneck 18.469 -1.62812 5.60979
head 7.18849 -1.08117 3.54934
lclavicle -9.0571e-15 -6.20208e-15 -2.82419e-32
lhumerus -37.0548 10.3133 83.723
lradius 27.8282 0 0
lwrist -10.0011 0 0
lhand -14.1216 29.3889 0.0271408
lfingers 7.12502 0 0
lthumb 12.011 59.0102 0.0232149
rclavicle -9.0571e-15 -6.20208e-15 -2.82419e-32
rhumerus -31.1258 -8.45626 -79.8819
rradius 37.0027 0 0
rwrist 3.05034 0 0
rhand -15.6778 11.9467 0.0209593
rfingers 7.12502 0 0
rthumb 10.5107 -17.7643 0.0212326
11
root -2.27203 17.3651 -31.8334 -0.396866 -4.90534 -1.95362
lfemur -28.1282 -0.519536 -17.8097
ltibia 49.8868 0 0
lfoot -7.38662 2.97514 0.00274209
ltoes -3.89918 0 0
rfemur -5.6481 6.68757 27.3399
rtibia 39.0526 0 0
rfoot -7.38077 -7.02675 0.45297
rtoes 5.09211 0 0
lowerback 5.68708 -0.383121 1.63923
upperback 0.411934 -0.321635 2.86702
thorax -2.7927 -0.167757 2.05856
lowerneck -8.79901 -1.8183 -11.2191
upperneck 18.1938 -1.75376 5.69369
head 7.17128 -1.12028 3.55218
lclavicle -2.03505e-15 -4.92986e-15 8.35966e-31
lhumerus -36.7156 9.88121 84.0994
lradius 27.4096 0 0
lwrist -9.45787 0 0
lhand -15.0004 28.6748 0.00452477
lfingers 7.12502 0 0
lthumb 11.1637 58.344 0.00161149
rclavicle -2.03505e-15 -4.92986e-15 8.35966e-31
rhumerus -30.3384 -8.32919 -80.0953
rradius 37.1666 0 0
rwrist 2.9476 0 0
rhand -16.0569 11.6127 0.0128753
rfingers 7.12502 0 0
rthumb 10.1451 -18.1192 0.0129753
